<?xml version="1.0" encoding="UTF-8"?>
<svg id="Layer_1" xmlns="http://www.w3.org/2000/svg" version="1.1" viewBox="0 0 99.4 22.6">
  <!-- Generator: Adobe Illustrator 29.6.1, SVG Export Plug-In . SVG Version: 2.1.1 Build 9)  -->
  <defs>
    <style>
      .st0 {
        fill: #fae700;
        opacity: .3;
      }

      .st1 {
        fill: #2953a5;
        opacity: 1;
      }

      .st2 {
        fill: #69cad9;
        opacity: .1;
      }

      .st3 {
        fill: #da6626;
      }

      .st3, .st4 {
        opacity: .7;
      }

      .st5 {
        fill: #841618;
        opacity: .4;
      }

      .st6 {
        fill: #f8bc16;
      }

      .st6, .st7 {
        opacity: .6;
      }

      .st8 {
        fill: #2f53a4;
        opacity: .5;
      }

      .st9 {
        fill: #3d87c8;
      }

      .st9, .st10, .st11 {
        opacity: .9;
      }

      .st12 {
        fill: #ea7b24;
        opacity: .1;
      }

      .st13 {
        fill: #eb7a23;
        opacity: .4;
      }

      .st10 {
        fill: #3f246a;
      }

      .st4 {
        fill: #045f6a;
      }

      .st11 {
        fill: #a82e23;
      }

      .st14 {
        fill: #3075bb;
        opacity: .1;
      }

      .st15 {
        fill: #100e22;
        opacity: .3;
      }

      .st16 {
        fill: #3bb984;
        opacity: .6;
      }

      .st17 {
        fill: #3f180b;
        opacity: .5;
      }

      .st18 {
        fill: #a74324;
        opacity: .8;
      }

      .st19 {
        fill: #2d7ec2;
      }

      .st19, .st20 {
        opacity: .3;
      }

      .st21 {
        fill: #ea7d23;
        opacity: 1;
      }

      .st22 {
        fill: #f7e300;
        opacity: .5;
      }

      .st20 {
        fill: #64cadf;
      }

      .st7 {
        fill: #33bdee;
      }

      .st23 {
        fill: #f9ab1a;
        opacity: .8;
      }

      .st24 {
        fill: #e8e621;
        opacity: .1;
      }

      .st25 {
        fill: #2c1b5a;
        opacity: .6;
      }
    </style>
  </defs>
  <g>
    <rect class="st23" y="6.8" width="2.3" height="2.3"/>
    <path class="st10" d="M11.3,20.3h2.3v-2.3h-2.3v2.3ZM2.3,9h2.3v-2.3h-2.3v2.3ZM4.5,4.5h2.3v-2.3h-2.3v2.3Z"/>
    <path class="st7" d="M4.5,13.6h2.3v-6.8h-2.3v6.8ZM6.8,4.5h2.3v-2.3h-2.3v2.3ZM13.6,2.3h2.3V0h-2.3v2.3Z"/>
    <path class="st2" d="M11.3,22.6h2.3v-2.3h-2.3v2.3ZM15.8,18.1h2.3v-2.3h-2.3v2.3Z"/>
    <rect class="st15" x="13.6" y="4.5" width="2.3" height="2.3"/>
    <path class="st1" d="M13.6,20.3h2.3v-2.3h-2.3v2.3ZM4.5,18.1h2.3v-2.3h-2.3v2.3ZM13.6,4.5h2.3v-2.3h-2.3v2.3Z"/>
    <path class="st9" d="M4.5,15.8h2.3v-2.3h-2.3v2.3ZM4.5,6.8h2.3v-2.3h-2.3v2.3Z"/>
    <path class="st21" d="M0,13.6h2.3v-4.5H0v4.5ZM2.3,4.5h2.3v-2.3h-2.3v2.3ZM11.3,4.5h2.3v-2.3h-2.3v2.3Z"/>
    <path class="st11" d="M4.5,20.3h2.3v-2.3h-2.3v2.3ZM2.3,6.8h2.3v-2.3h-2.3v2.3Z"/>
    <path class="st24" d="M6.8,22.6h2.3v-2.3h-2.3v2.3ZM0,18.1h2.3v-2.3H0v2.3ZM11.3,18.1h2.3v-2.3h-2.3v2.3Z"/>
    <rect class="st14" x="9" y="20.3" width="2.3" height="2.3"/>
    <path d="M6.8,20.3h2.3v-2.3h-2.3v2.3ZM2.3,15.8h2.3v-6.8h-2.3v6.8Z"/>
    <path class="st18" d="M2.3,18.1h2.3v-2.3h-2.3v2.3ZM6.8,2.3h2.3V0h-2.3v2.3Z"/>
    <path class="st25" d="M9,20.3h2.3v-2.3h-2.3v2.3ZM9,2.3h4.5V0h-4.5v2.3Z"/>
    <path class="st20" d="M6.8,18.1h2.3v-2.3h-2.3v2.3ZM15.8,4.5h2.3v-2.3h-2.3v2.3Z"/>
    <rect class="st13" x="4.5" width="2.3" height="2.3"/>
    <path class="st0" d="M2.3,20.3h2.3v-2.3h-2.3v2.3ZM0,6.8h2.3v-2.3H0v2.3ZM11.3,6.8h2.3v-2.3h-2.3v2.3Z"/>
    <rect class="st5" x="13.6" y="15.8" width="2.3" height="2.3"/>
    <rect class="st6" y="13.6" width="2.3" height="2.3"/>
  </g>
  <g>
    <path class="st11" d="M22.6,20.3h2.3v-2.3h-2.3v2.3ZM29.4,20.3h2.3v-2.3h-2.3v2.3ZM31.6,18.1h2.3v-2.3h-2.3v2.3ZM20.3,6.8h2.3v-2.3h-2.3v2.3Z"/>
    <rect class="st24" x="27.1" y="2.3" width="2.3" height="2.3"/>
    <path class="st9" d="M33.9,18.1h2.3v-2.3h-2.3v2.3ZM22.6,15.8h2.3v-2.3h-2.3v2.3ZM36.1,11.3h2.3v-2.3h-2.3v2.3ZM22.6,6.8h2.3v-2.3h-2.3v2.3ZM33.9,4.5h2.3v-2.3h-2.3v2.3Z"/>
    <path class="st21" d="M20.3,18.1h2.3v-2.3h-2.3v2.3ZM31.6,15.8h2.3v-2.3h-2.3v2.3ZM18.1,11.3h2.3v-2.3h-2.3v2.3ZM31.6,6.8h2.3v-2.3h-2.3v2.3ZM20.3,4.5h2.3v-2.3h-2.3v2.3Z"/>
    <rect class="st14" x="27.1" y="20.3" width="2.3" height="2.3"/>
    <rect class="st12" x="24.8" y="20.3" width="2.3" height="2.3"/>
    <path class="st20" d="M36.1,15.8h2.3v-2.3h-2.3v2.3ZM36.1,6.8h2.3v-2.3h-2.3v2.3Z"/>
    <rect class="st25" x="27.1" width="4.5" height="2.3"/>
    <rect class="st18" x="24.8" width="2.3" height="2.3"/>
    <rect class="st22" x="18.1" y="4.5" width="2.3" height="2.3"/>
    <rect class="st6" x="18.1" y="13.6" width="2.3" height="2.3"/>
    <path class="st0" d="M20.3,20.3h2.3v-2.3h-2.3v2.3ZM29.4,18.1h2.3v-2.3h-2.3v2.3Z"/>
    <path class="st7" d="M36.1,13.6h2.3v-2.3h-2.3v2.3ZM22.6,13.6h2.3v-6.8h-2.3v6.8ZM36.1,9h2.3v-2.3h-2.3v2.3ZM24.8,4.5h2.3v-2.3h-2.3v2.3ZM31.6,2.3h2.3V0h-2.3v2.3Z"/>
    <path class="st10" d="M24.8,20.3h2.3v-2.3h-2.3v2.3ZM20.3,15.8h2.3V6.8h-2.3v9ZM33.9,15.8h2.3V6.8h-2.3v9ZM22.6,4.5h2.3v-2.3h-2.3v2.3ZM31.6,4.5h2.3v-2.3h-2.3v2.3Z"/>
    <path class="st23" d="M18.1,13.6h2.3v-2.3h-2.3v2.3ZM18.1,9h2.3v-2.3h-2.3v2.3ZM31.6,13.6h2.3v-6.8h-2.3v6.8Z"/>
    <rect class="st17" x="27.1" y="18.1" width="2.3" height="2.3"/>
    <path class="st2" d="M29.4,22.6h2.3v-2.3h-2.3v2.3ZM33.9,20.3h2.3v-2.3h-2.3v2.3ZM24.8,18.1h2.3v-2.3h-2.3v2.3Z"/>
    <path class="st3" d="M29.4,4.5h2.3v-2.3h-2.3v2.3ZM22.6,2.3h2.3V0h-2.3v2.3Z"/>
    <path class="st1" d="M31.6,20.3h2.3v-2.3h-2.3v2.3ZM22.6,18.1h2.3v-2.3h-2.3v2.3ZM33.9,6.8h2.3v-2.3h-2.3v2.3Z"/>
  </g>
  <g>
    <path class="st11" d="M42.9,20.3h2.3v-2.3h-2.3v2.3ZM49.7,20.3h2.3v-2.3h-2.3v2.3ZM52,18.1h2.3v-2.3h-2.3v2.3ZM40.7,6.8h2.3v-2.3h-2.3v2.3Z"/>
    <rect class="st24" x="47.4" y="2.3" width="2.3" height="2.3"/>
    <path class="st9" d="M54.2,18.1h2.3v-2.3h-2.3v2.3ZM42.9,15.8h2.3v-2.3h-2.3v2.3ZM56.5,11.3h2.3v-2.3h-2.3v2.3ZM42.9,6.8h2.3v-2.3h-2.3v2.3ZM54.2,4.5h2.3v-2.3h-2.3v2.3Z"/>
    <path class="st21" d="M40.7,18.1h2.3v-2.3h-2.3v2.3ZM52,15.8h2.3v-2.3h-2.3v2.3ZM38.4,11.3h2.3v-2.3h-2.3v2.3ZM52,6.8h2.3v-2.3h-2.3v2.3ZM40.7,4.5h2.3v-2.3h-2.3v2.3Z"/>
    <rect class="st14" x="47.4" y="20.3" width="2.3" height="2.3"/>
    <rect class="st12" x="45.2" y="20.3" width="2.3" height="2.3"/>
    <path class="st20" d="M56.5,15.8h2.3v-2.3h-2.3v2.3ZM56.5,6.8h2.3v-2.3h-2.3v2.3Z"/>
    <rect class="st25" x="47.4" width="4.5" height="2.3"/>
    <rect class="st18" x="45.2" width="2.3" height="2.3"/>
    <rect class="st22" x="38.4" y="4.5" width="2.3" height="2.3"/>
    <rect class="st6" x="38.4" y="13.6" width="2.3" height="2.3"/>
    <path class="st0" d="M40.7,20.3h2.3v-2.3h-2.3v2.3ZM49.7,18.1h2.3v-2.3h-2.3v2.3Z"/>
    <path class="st7" d="M56.5,13.6h2.3v-2.3h-2.3v2.3ZM42.9,13.6h2.3v-6.8h-2.3v6.8ZM56.5,9h2.3v-2.3h-2.3v2.3ZM45.2,4.5h2.3v-2.3h-2.3v2.3ZM52,2.3h2.3V0h-2.3v2.3Z"/>
    <path class="st10" d="M45.2,20.3h2.3v-2.3h-2.3v2.3ZM40.7,15.8h2.3V6.8h-2.3v9ZM54.2,15.8h2.3V6.8h-2.3v9ZM42.9,4.5h2.3v-2.3h-2.3v2.3ZM52,4.5h2.3v-2.3h-2.3v2.3Z"/>
    <path class="st23" d="M38.4,13.6h2.3v-2.3h-2.3v2.3ZM38.4,9h2.3v-2.3h-2.3v2.3ZM52,13.6h2.3v-6.8h-2.3v6.8Z"/>
    <rect class="st17" x="47.4" y="18.1" width="2.3" height="2.3"/>
    <path class="st2" d="M49.7,22.6h2.3v-2.3h-2.3v2.3ZM54.2,20.3h2.3v-2.3h-2.3v2.3ZM45.2,18.1h2.3v-2.3h-2.3v2.3Z"/>
    <path class="st3" d="M49.7,4.5h2.3v-2.3h-2.3v2.3ZM42.9,2.3h2.3V0h-2.3v2.3Z"/>
    <path class="st1" d="M52,20.3h2.3v-2.3h-2.3v2.3ZM42.9,18.1h2.3v-2.3h-2.3v2.3ZM54.2,6.8h2.3v-2.3h-2.3v2.3Z"/>
  </g>
  <g>
    <rect class="st21" x="61" y="2.3" width="2.3" height="15.8"/>
    <path class="st11" d="M61,20.3h2.3v-2.3h-2.3v2.3ZM70,20.3h2.3v-2.3h-2.3v2.3Z"/>
    <path class="st17" d="M67.8,20.3h2.3v-2.3h-2.3v2.3ZM61,2.3h4.5V0h-4.5v2.3Z"/>
    <path class="st3" d="M58.7,20.3h2.3v-2.3h-2.3v2.3ZM58.7,2.3h2.3V0h-2.3v2.3Z"/>
    <rect class="st10" x="72.3" y="15.8" width="2.3" height="4.5"/>
    <rect class="st5" x="72.3" y="13.6" width="2.3" height="2.3"/>
    <rect class="st0" x="70" y="15.8" width="2.3" height="2.3"/>
    <path class="st20" d="M74.5,20.3h2.3v-6.8h-2.3v6.8ZM65.5,18.1h2.3V2.3h-2.3v15.8ZM67.8,2.3h2.3V0h-2.3v2.3Z"/>
    <rect class="st4" x="65.5" y="18.1" width="2.3" height="2.3"/>
    <rect class="st25" x="65.5" width="2.3" height="2.3"/>
    <rect x="63.2" y="18.1" width="2.3" height="2.3"/>
    <rect class="st1" x="63.2" y="2.3" width="2.3" height="15.8"/>
  </g>
  <g>
    <rect class="st17" x="83.6" y="18.1" width="2.3" height="2.3"/>
    <path class="st2" d="M97.1,20.3h2.3v-2.3h-2.3v2.3ZM83.6,4.5h2.3v-2.3h-2.3v2.3ZM90.4,6.8h2.3V2.3h-2.3v4.5Z"/>
    <rect class="st16" x="88.1" y="11.3" width="2.3" height="2.3"/>
    <path class="st7" d="M92.6,18.1h2.3v-2.3h-2.3v2.3ZM92.6,13.6h2.3v-2.3h-2.3v2.3ZM85.8,11.3h2.3v-2.3h-2.3v2.3ZM94.9,11.3h2.3v-2.3h-2.3v2.3ZM88.1,9h2.3v-2.3h-2.3v2.3Z"/>
    <rect class="st23" x="79.1" y="6.8" width="2.3" height="2.3"/>
    <path class="st10" d="M81.3,20.3h2.3v-2.3h-2.3v2.3ZM92.6,20.3h2.3v-2.3h-2.3v2.3ZM79.1,13.6h2.3v-2.3h-2.3v2.3ZM85.8,13.6h2.3v-2.3h-2.3v2.3ZM90.4,13.6h2.3v-2.3h-2.3v2.3ZM81.3,9h2.3v-2.3h-2.3v2.3ZM85.8,9h2.3v-2.3h-2.3v2.3Z"/>
    <path class="st1" d="M79.1,18.1h2.3v-4.5h-2.3v4.5ZM90.4,18.1h2.3v-4.5h-2.3v4.5ZM92.6,11.3h2.3v-2.3h-2.3v2.3ZM81.3,6.8h2.3V2.3h-2.3v4.5ZM88.1,6.8h2.3V2.3h-2.3v4.5Z"/>
    <path class="st24" d="M81.3,22.6h2.3v-2.3h-2.3v2.3ZM88.1,11.3h2.3v-2.3h-2.3v2.3ZM90.4,9h2.3v-2.3h-2.3v2.3Z"/>
    <path class="st11" d="M79.1,20.3h2.3v-2.3h-2.3v2.3ZM88.1,18.1h2.3v-2.3h-2.3v2.3ZM81.3,11.3h2.3v-2.3h-2.3v2.3ZM90.4,11.3h2.3v-2.3h-2.3v2.3Z"/>
    <path class="st21" d="M85.8,15.8h2.3v-2.3h-2.3v2.3ZM76.8,18.1h2.3v-6.8h-2.3v6.8ZM83.6,13.6h2.3v-2.3h-2.3v2.3ZM79.1,11.3h2.3v-2.3h-2.3v2.3ZM79.1,6.8h2.3V2.3h-2.3v4.5ZM85.8,6.8h2.3V2.3h-2.3v4.5Z"/>
    <rect class="st9" x="94.9" y="18.1" width="2.3" height="2.3"/>
    <rect class="st19" x="88.1" width="2.3" height="2.3"/>
    <rect class="st14" x="83.6" y="20.3" width="2.3" height="2.3"/>
    <path class="st0" d="M76.8,20.3h2.3v-2.3h-2.3v2.3ZM85.8,18.1h2.3v-2.3h-2.3v2.3ZM79.1,2.3h2.3V0h-2.3v2.3Z"/>
    <path class="st18" d="M90.4,20.3h2.3v-2.3h-2.3v2.3ZM81.3,2.3h2.3V0h-2.3v2.3Z"/>
    <path class="st25" d="M85.8,20.3h2.3v-2.3h-2.3v2.3ZM83.6,2.3h4.5V0h-4.5v2.3Z"/>
    <path class="st20" d="M81.3,18.1h2.3v-2.3h-2.3v2.3ZM81.3,13.6h2.3v-2.3h-2.3v2.3Z"/>
    <rect class="st4" x="83.6" y="6.8" width="2.3" height="2.3"/>
    <rect class="st8" x="88.1" y="18.1" width="2.3" height="2.3"/>
    <path d="M88.1,15.8h2.3v-2.3h-2.3v2.3ZM83.6,11.3h2.3v-2.3h-2.3v2.3Z"/>
  </g>
</svg>