<svg width="179" height="36" viewBox="0 0 179 36" fill="none" xmlns="http://www.w3.org/2000/svg">
<path d="M30.2998 17.1997C28.3298 17.0655 26.5994 16.0222 25.6372 15.0944C25.5573 15.0161 25.3976 14.8559 25.1998 14.6584C24.6598 14.1144 23.8383 13.2946 23.5797 13.0934C22.7125 12.2662 21.4347 11.793 20.0769 11.793C18.7192 11.793 17.4414 12.2662 16.578 13.0897C16.3156 13.2946 15.4941 14.1181 14.9503 14.6659C14.7563 14.8596 14.6004 15.0199 14.5205 15.0944C13.5583 16.0259 11.8279 17.0655 9.85785 17.1997C9.60304 17.2183 9.40527 17.4233 9.40527 17.6692C9.40527 17.9151 9.60304 18.1238 9.85785 18.1424C11.8279 18.2766 13.5583 19.3199 14.5205 20.2477C14.6004 20.326 14.7601 20.4862 14.9617 20.6874C15.5017 21.2314 16.3194 22.0512 16.578 22.2487C17.4452 23.0759 18.723 23.5491 20.0807 23.5491C21.4385 23.5491 22.7163 23.0759 23.5797 22.2524C23.8421 22.0512 24.6598 21.2314 25.1998 20.6874C25.3976 20.4899 25.5573 20.326 25.641 20.2477C26.6032 19.3162 28.3336 18.2766 30.3036 18.1424C30.5585 18.1238 30.7562 17.9188 30.7562 17.6692C30.7562 17.4195 30.5585 17.2146 30.3036 17.1997H30.2998Z" fill="#000000"/>
<path d="M20.9844 0.963901C25.2098 1.60481 28.6706 6.70598 29.6975 13.4504C30.036 15.6675 31.9908 17.2996 34.2765 17.2996H35.619C38.4219 17.2996 40.43 14.5571 39.4298 11.9897C36.8094 5.26766 29.6252 0.356531 21.0605 0.00626762C20.7829 -0.00491099 20.5547 0.214935 20.5547 0.486948C20.5547 0.732877 20.741 0.926639 20.9844 0.963901Z" fill="#000000"/>
<path d="M35.619 18.041H34.2765C31.9908 18.041 30.036 19.6731 29.6975 21.8902C28.6706 28.6346 25.2098 33.7358 20.9844 34.3767C20.741 34.4139 20.5547 34.6077 20.5547 34.8499C20.5547 35.1219 20.7867 35.3455 21.0605 35.3343C29.6252 34.9841 36.8094 30.0766 39.4298 23.3509C40.43 20.7835 38.4219 18.041 35.619 18.041Z" fill="#000000"/>
<path d="M4.54604 17.2996H5.88856C8.17426 17.2996 10.1291 15.6675 10.4676 13.4504C11.4944 6.70597 14.9553 1.6048 19.1806 0.963895C19.424 0.926633 19.6104 0.73287 19.6104 0.490667C19.6104 0.218655 19.3784 -0.00491744 19.1045 0.00626116C10.5398 0.356524 3.35565 5.26393 0.735271 11.9897C-0.26496 14.5571 1.74311 17.2996 4.54604 17.2996Z" fill="#000000"/>
<path d="M19.1767 34.3767C14.9514 33.7358 11.4905 28.6346 10.4637 21.8902C10.1252 19.6731 8.17034 18.041 5.88464 18.041H4.54213C1.7392 18.041 -0.268866 20.7835 0.731365 23.3509C3.35174 30.0766 10.5321 34.9841 19.1006 35.3343C19.3783 35.3455 19.6064 35.1257 19.6064 34.8536C19.6064 34.6077 19.4201 34.4139 19.1767 34.3767Z" fill="#000000"/>
<path d="M165.613 11.9383V26.4361C165.613 27.5687 164.655 28.5072 163.499 28.5072C162.31 28.5072 161.353 27.5687 161.353 26.4361V11.9383C161.353 8.5727 164.127 5.88672 167.561 5.88672H167.99C168.816 5.88672 169.477 6.53394 169.477 7.34297V8.5727C169.477 9.38173 168.816 10.029 167.99 10.029H167.561C166.471 10.029 165.613 10.8703 165.613 11.9383ZM172.218 10.029H171.788C170.963 10.029 170.302 9.38173 170.302 8.5727V7.34297C170.302 6.53394 170.963 5.88672 171.788 5.88672H172.218C175.652 5.88672 178.393 8.5727 178.393 11.9383V26.4361C178.393 27.5687 177.468 28.5072 176.28 28.5072C175.124 28.5072 174.166 27.5687 174.166 26.4361V11.9383C174.166 10.8703 173.307 10.029 172.218 10.029ZM170.632 18.9283H169.146C167.99 18.9283 167.033 17.9898 167.033 16.8248C167.033 15.6922 167.99 14.7537 169.146 14.7537H170.632C171.788 14.7537 172.746 15.6922 172.746 16.8248C172.746 17.9898 171.788 18.9283 170.632 18.9283Z" fill="#000000"/>
<path d="M147.855 24.3326H148.285C149.11 24.3326 149.771 25.0122 149.771 25.7888V27.0509C149.771 27.86 149.11 28.5072 148.285 28.5072H147.855C144.421 28.5072 141.68 25.7888 141.68 22.4556V7.76367C141.68 6.72811 142.538 5.88672 143.595 5.88672H143.991C145.048 5.88672 145.907 6.72811 145.907 7.76367V22.4556C145.907 23.4912 146.765 24.3326 147.855 24.3326ZM154.46 22.4556V7.76367C154.46 6.72811 155.319 5.88672 156.409 5.88672H156.772C157.862 5.88672 158.72 6.72811 158.72 7.76367V22.4556C158.72 25.7888 155.946 28.5072 152.545 28.5072H152.082C151.257 28.5072 150.596 27.86 150.596 27.0509V25.7888C150.596 25.0122 151.257 24.3326 152.082 24.3326H152.545C153.602 24.3326 154.46 23.4912 154.46 22.4556Z" fill="#000000"/>
<path d="M127.905 6.92228L130.382 11.194C130.811 11.9059 131.042 12.7473 131.042 13.5887V20.8052C131.042 21.6466 130.811 22.4556 130.382 23.2L127.905 27.4716C127.509 28.1189 126.815 28.5072 126.023 28.5072C124.404 28.5072 123.381 26.7597 124.173 25.3681L128.4 18.2163C128.764 17.5691 128.764 16.7924 128.4 16.1452L124.173 9.02575C123.381 7.60186 124.404 5.88672 126.023 5.88672C126.815 5.88672 127.509 6.27505 127.905 6.92228ZM136.888 5.88672C138.539 5.88672 139.563 7.60186 138.737 9.02575L134.543 16.1452C134.147 16.7924 134.147 17.5691 134.543 18.2163L138.737 25.3681C139.563 26.7597 138.539 28.5072 136.888 28.5072C136.128 28.5072 135.401 28.1189 135.038 27.4716L132.528 23.2C132.099 22.4556 131.868 21.6466 131.868 20.8052V13.5887C131.868 12.7473 132.099 11.9059 132.528 11.194L135.038 6.92228C135.401 6.27505 136.128 5.88672 136.888 5.88672Z" fill="#000000"/>
<path d="M111.463 5.88672H111.859C112.685 5.88672 113.345 6.53394 113.345 7.34297V8.5727C113.345 9.38173 112.685 10.029 111.859 10.029H111.463C110.703 10.029 110.109 10.6115 110.109 11.3558V13.4269C110.109 14.1388 110.703 14.7537 111.463 14.7537H111.859C112.685 14.7537 113.345 15.4009 113.345 16.2099V17.4397C113.345 18.2487 112.685 18.8959 111.859 18.8959H111.463C110.703 18.8959 110.109 19.4784 110.109 20.2227V23.0381C110.109 23.7501 110.703 24.3326 111.463 24.3326H111.859C112.685 24.3326 113.345 25.0122 113.345 25.8212V27.0509C113.345 27.86 112.685 28.5072 111.859 28.5072H111.463C108.359 28.5072 105.882 26.0477 105.882 23.0381V20.2227C105.882 18.9283 106.311 17.7633 107.071 16.8248C106.311 15.8863 105.882 14.7213 105.882 13.4269V11.3558C105.882 8.31381 108.359 5.88672 111.463 5.88672ZM119.158 10.029H116.285C115.129 10.029 114.171 9.09048 114.171 7.95784C114.171 6.79283 115.129 5.88672 116.285 5.88672H119.158C120.313 5.88672 121.271 6.79283 121.271 7.95784C121.271 9.09048 120.313 10.029 119.158 10.029ZM117.639 18.9283H115.822C114.898 18.9283 114.171 18.184 114.171 17.2779V16.3717C114.171 15.498 114.898 14.7537 115.822 14.7537H117.639C118.563 14.7537 119.323 15.498 119.323 16.3717V17.2779C119.323 18.184 118.563 18.9283 117.639 18.9283ZM116.285 24.3326H119.158C120.313 24.3326 121.271 25.2711 121.271 26.4361C121.271 27.5687 120.313 28.5072 119.158 28.5072H116.285C115.129 28.5072 114.171 27.5687 114.171 26.4361C114.171 25.2711 115.129 24.3326 116.285 24.3326Z" fill="#000000"/>
<path d="M94.0474 15.2715C94.84 15.2715 95.4674 15.8863 95.4674 16.663V18.0222C95.4674 18.7988 94.84 19.4137 94.0474 19.4137C90.9431 19.4137 88.4002 16.9542 88.4002 13.8799V11.4205C88.4002 8.34617 90.9431 5.88672 94.0474 5.88672C94.84 5.88672 95.4674 6.50158 95.4674 7.27825V8.63742C95.4674 9.41409 94.84 10.029 94.0474 10.029C93.2878 10.029 92.6273 10.6438 92.6273 11.4205V13.8799C92.6273 14.6566 93.2878 15.2715 94.0474 15.2715ZM96.293 7.95784C96.293 6.79283 97.2507 5.88672 98.4396 5.88672H101.115C102.27 5.88672 103.228 6.79283 103.228 7.95784C103.228 9.09048 102.27 10.029 101.115 10.029H98.4396C97.2507 10.029 96.293 9.09048 96.293 7.95784ZM97.647 19.4137C96.8875 19.4137 96.293 18.8312 96.293 18.1192V16.5659C96.293 15.854 96.8875 15.2715 97.647 15.2715C100.718 15.2715 103.228 17.7309 103.228 20.7405V23.0381C103.228 26.0477 100.718 28.5072 97.647 28.5072C96.8875 28.5072 96.293 27.9247 96.293 27.1804V25.6594C96.293 24.9475 96.8875 24.3326 97.647 24.3326C98.3736 24.3326 98.968 23.7501 98.968 23.0381V20.7405C98.968 20.0286 98.3736 19.4137 97.647 19.4137ZM90.5138 24.3326H93.3539C94.5428 24.3326 95.4674 25.2711 95.4674 26.4361C95.4674 27.5687 94.5428 28.5072 93.3539 28.5072H90.5138C89.3249 28.5072 88.3672 27.5687 88.3672 26.4361C88.3672 25.2711 89.3249 24.3326 90.5138 24.3326Z" fill="#000000"/>
<path d="M74.8718 24.3326H75.3012C76.1268 24.3326 76.7873 25.0122 76.7873 25.7888V27.0509C76.7873 27.86 76.1268 28.5072 75.3012 28.5072H74.8718C71.4373 28.5072 68.6963 25.7888 68.6963 22.4556V7.76367C68.6963 6.72811 69.5549 5.88672 70.6117 5.88672H71.008C72.0648 5.88672 72.9234 6.72811 72.9234 7.76367V22.4556C72.9234 23.4912 73.782 24.3326 74.8718 24.3326ZM81.4767 22.4556V7.76367C81.4767 6.72811 82.3354 5.88672 83.4252 5.88672H83.7884C84.8782 5.88672 85.7369 6.72811 85.7369 7.76367V22.4556C85.7369 25.7888 82.9628 28.5072 79.5613 28.5072H79.099C78.2734 28.5072 77.6129 27.86 77.6129 27.0509V25.7888C77.6129 25.0122 78.2734 24.3326 79.099 24.3326H79.5613C80.6181 24.3326 81.4767 23.4912 81.4767 22.4556Z" fill="#000000"/>
<path d="M56.2491 5.88672H56.6454C57.471 5.88672 58.1315 6.53394 58.1315 7.34297V8.5727C58.1315 9.38173 57.471 10.029 56.6454 10.029H56.2491C55.4895 10.029 54.8951 10.6115 54.8951 11.3558V13.4269C54.8951 14.1388 55.4895 14.7537 56.2491 14.7537H56.6454C57.471 14.7537 58.1315 15.4009 58.1315 16.2099V17.4397C58.1315 18.2487 57.471 18.8959 56.6454 18.8959H56.2491C55.4895 18.8959 54.8951 19.4784 54.8951 20.2227V23.0381C54.8951 23.7501 55.4895 24.3326 56.2491 24.3326H56.6454C57.471 24.3326 58.1315 25.0122 58.1315 25.8212V27.0509C58.1315 27.86 57.471 28.5072 56.6454 28.5072H56.2491C53.1448 28.5072 50.668 26.0477 50.668 23.0381V20.2227C50.668 18.9283 51.0973 17.7633 51.8568 16.8248C51.0973 15.8863 50.668 14.7213 50.668 13.4269V11.3558C50.668 8.31381 53.1448 5.88672 56.2491 5.88672ZM63.9438 10.029H61.0707C59.9148 10.029 58.9571 9.09048 58.9571 7.95784C58.9571 6.79283 59.9148 5.88672 61.0707 5.88672H63.9438C65.0996 5.88672 66.0573 6.79283 66.0573 7.95784C66.0573 9.09048 65.0996 10.029 63.9438 10.029ZM62.4246 18.9283H60.6083C59.6836 18.9283 58.9571 18.184 58.9571 17.2779V16.3717C58.9571 15.498 59.6836 14.7537 60.6083 14.7537H62.4246C63.3493 14.7537 64.1089 15.498 64.1089 16.3717V17.2779C64.1089 18.184 63.3493 18.9283 62.4246 18.9283ZM61.0707 24.3326H63.9438C65.0996 24.3326 66.0573 25.2711 66.0573 26.4361C66.0573 27.5687 65.0996 28.5072 63.9438 28.5072H61.0707C59.9148 28.5072 58.9571 27.5687 58.9571 26.4361C58.9571 25.2711 59.9148 24.3326 61.0707 24.3326Z" fill="#000000"/>
</svg>
