<svg width="336" height="68" viewBox="0 0 336 68" fill="none" xmlns="http://www.w3.org/2000/svg">
<path d="M0.000529723 26.7232C-0.0911982 12.1714 11.7417 0.273694 26.3265 0.182173C26.4182 0.182173 26.5099 0.182173 26.6016 0.182173C41.1864 0.0906524 53.111 11.8053 53.2027 26.3571C53.2027 26.4487 53.2027 26.6317 53.2027 26.7232C53.2945 41.275 41.5533 53.1728 26.9685 53.2643C26.8768 53.2643 26.6934 53.2643 26.6016 53.2643C12.0169 53.3558 0.0922577 41.5496 0.000529723 26.9978C0.000529723 26.9063 0.000529723 26.8147 0.000529723 26.7232ZM44.8555 26.7232C44.8555 16.1983 36.9669 8.32753 26.6016 8.32753C16.2364 8.32753 8.4395 16.1068 8.4395 26.7232C8.4395 37.3396 16.3281 45.0274 26.6016 45.0274C36.8752 45.0274 44.8555 37.2481 44.8555 26.7232Z" fill="#000000"/>
<path d="M120.715 15.7414V52.3497H112.826V47.0415C110.074 50.8854 105.671 53.2649 99.9843 53.2649C89.9859 53.2649 81.6387 44.845 81.6387 34.0456C81.6387 23.2461 89.8942 14.8262 99.8925 14.8262C105.58 14.8262 109.983 17.2057 112.734 20.9581V15.7414H120.715ZM111.909 34.0456C111.909 27.6391 106.68 22.5139 100.351 22.5139C94.0219 22.5139 88.7935 27.7306 88.7935 34.0456C88.7935 40.452 94.0219 45.5772 100.351 45.5772C106.68 45.5772 111.909 40.452 111.909 34.0456Z" fill="#000000"/>
<path d="M161.534 29.835V52.3492H153.645V30.6587C153.645 25.076 150.434 22.1473 145.389 22.1473C140.161 22.1473 136.033 25.259 136.033 32.6722V52.2577H128.145V15.6493H136.033V20.3169C138.418 16.473 142.454 14.6426 147.407 14.6426C155.663 14.7341 161.534 20.3169 161.534 29.835Z" fill="#000000"/>
<path d="M207.03 15.7411V50.7021C207.03 62.5083 197.766 67.9995 188.134 67.9995C180.062 67.9995 173.825 64.9793 170.706 59.122L177.494 55.1866C179.145 58.2983 181.805 60.8609 188.226 60.8609C195.014 60.8609 199.142 57.1086 199.142 50.7936V46.3091C196.206 50.4275 191.437 52.8986 186.392 52.7155C176.118 52.5325 167.862 44.1126 167.954 33.8623C167.954 33.7707 167.954 33.7707 167.954 33.6792C167.771 23.4289 175.935 15.009 186.208 14.8259C186.3 14.8259 186.3 14.8259 186.392 14.8259C191.437 14.6429 196.298 17.1139 199.142 21.2324V15.7411H207.03ZM198.316 33.6792C198.316 27.2728 193.088 22.0561 186.667 22.0561C180.246 22.0561 175.017 27.2728 175.017 33.6792C175.017 40.0857 180.246 45.3024 186.667 45.3024C193.088 45.3024 198.316 40.0857 198.316 33.6792Z" fill="#000000"/>
<path d="M232.44 46.0348C236.201 46.2178 239.686 44.4789 241.888 41.4587L248.401 45.3026C245.007 50.2447 239.503 53.2649 232.348 53.2649C220.24 53.2649 212.352 45.0281 212.352 34.0456C212.352 23.2461 220.24 14.8262 231.706 14.8262C242.622 14.8262 250.143 23.6122 250.143 34.1371C250.143 35.2353 250.052 36.3336 249.868 37.4318H220.699C221.891 43.1061 226.569 46.0348 232.44 46.0348ZM242.163 30.9338C241.062 24.6189 236.476 21.9648 231.706 21.9648C225.744 21.9648 221.708 25.4426 220.607 30.9338H242.163Z" fill="#000000"/>
<path d="M267.662 15.0087V23.0625H276.284V30.6588H267.662V52.3492H259.773V30.6588H254.178V23.0625H259.773V15.0087C259.773 5.12444 265.369 -0.549853 276.376 0.182314V7.77855C270.78 7.22942 267.662 9.3344 267.662 15.0087Z" fill="#000000"/>
<path d="M281.422 15.6504H289.31V52.2587H281.422V15.6504Z" fill="#000000"/>
<path d="M306.006 23.2458V40.8178C306.006 45.4853 307.107 45.4853 313.069 45.2108L315.087 51.8918C302.337 53.8137 298.117 50.3359 298.117 40.8178V23.2458H293.164V15.6495H298.117V9.06004L306.006 7.5957V15.6495H315.087V23.2458H306.006Z" fill="#000000"/>
<path d="M88.1517 13.5449C71.8241 13.8195 68.7054 18.9447 66.5956 23.7037V15.7414H58.707V52.3498H66.5956V28.3713C66.5956 23.2461 69.8061 23.7037 73.3835 24.6189C76.3188 25.3511 79.4375 23.9783 80.9052 21.4157C82.7398 18.3955 85.2164 15.8329 88.2434 13.911C88.3352 13.8195 88.3352 13.728 88.2434 13.6364C88.2434 13.5449 88.1517 13.5449 88.1517 13.5449Z" fill="#000000"/>
<path d="M288.484 3.9354L286.007 0L282.797 3.38627L280.229 1.00673L280.32 7.68775L290.043 8.60296L291.511 2.1965L288.484 3.9354Z" fill="#000000"/>
<path d="M336 7.87079C336 12.1723 332.514 15.7416 328.111 15.7416C323.708 15.7416 320.223 12.2638 320.223 7.87079C320.223 3.56931 323.708 0 328.111 0C332.514 0 336 3.47779 336 7.87079ZM335.266 7.87079C335.266 3.84388 332.056 0.640646 328.111 0.640646C324.167 0.640646 320.956 3.84388 320.956 7.87079C320.956 11.8977 324.167 15.1009 328.111 15.1009C332.056 15.1009 335.266 11.8062 335.266 7.87079ZM329.946 8.786L331.597 11.8062H329.762L328.386 9.06056H328.295H327.286V11.8062H325.635V3.84388H328.386C330.313 3.84388 331.413 5.03365 331.413 6.40646C331.322 7.59623 330.863 8.41992 329.946 8.786ZM327.194 7.59623H328.203C329.12 7.59623 329.579 7.13863 329.579 6.49798C329.579 5.76581 329.12 5.39973 328.203 5.39973H327.194V7.59623Z" fill="#000000"/>
</svg>
